<?xml version="1.0" encoding="utf-8"?>
<!-- Generator: Adobe Illustrator 21.1.0, SVG Export Plug-In . SVG Version: 6.00 Build 0)  -->
<svg version="1.1" id="Capa_1" xmlns="http://www.w3.org/2000/svg" xmlns:xlink="http://www.w3.org/1999/xlink" x="0px" y="0px"
	 viewBox="0 0 167.2 65.3" style="enable-background:new 0 0 167.2 65.3;" xml:space="preserve">
<style type="text/css">
	.st0{fill:#FFFFFF;}
	.st1{fill:#88F2B8;}
</style>
<g>
	<g>
		<path class="st0" d="M10,57.7c0.6,0,1.3-0.1,1.9-0.3c0.6-0.2,1.2-0.6,1.7-1.2c0.5-0.5,0.9-1.2,1.2-2.1c0.3-0.9,0.5-1.9,0.5-3.2
			c0-1.3-0.3-2.6-1-3.9c-0.7-1.3-1.5-2.5-2.5-3.7c-1-1.2-2.1-2.4-3.2-3.6c-1.2-1.2-2.2-2.4-3.2-3.7c-1-1.3-1.8-2.5-2.5-3.9
			c-0.7-1.3-1-2.7-1-4.2c0-1.5,0.3-2.8,0.8-3.9c0.5-1.2,1.3-2.2,2.2-3c0.9-0.8,2-1.5,3.2-1.9c1.2-0.4,2.5-0.7,3.9-0.7
			c1.5,0,2.8,0.2,4,0.5c1.2,0.3,2.1,0.7,2.9,1.3c0.8,0.5,1.4,1.2,1.8,1.9c0.4,0.7,0.6,1.5,0.6,2.3c0,0.4-0.1,0.8-0.2,1.2
			c-0.1,0.4-0.3,0.8-0.5,1.1c-0.2,0.3-0.5,0.6-0.9,0.8c-0.4,0.2-0.8,0.3-1.3,0.3c-0.6,0-1-0.2-1.3-0.5c-0.3-0.4-0.5-0.8-0.6-1.3
			c-0.1-0.5-0.3-1.1-0.3-1.7c-0.1-0.6-0.2-1.2-0.5-1.7c-0.2-0.5-0.5-1-0.9-1.3c-0.4-0.4-1-0.5-1.8-0.5c-0.4,0-0.9,0.1-1.3,0.3
			c-0.4,0.2-0.8,0.5-1.2,0.9c-0.3,0.4-0.6,0.9-0.8,1.5c-0.2,0.6-0.3,1.3-0.3,2.2c0,1,0.2,1.9,0.6,2.8c0.4,0.9,0.9,1.8,1.6,2.7
			c0.7,0.9,1.4,1.8,2.2,2.7c0.8,0.9,1.7,1.8,2.6,2.7c0.9,0.9,1.7,1.8,2.6,2.8c0.8,1,1.6,1.9,2.2,3c0.7,1,1.2,2.1,1.6,3.2
			c0.4,1.1,0.6,2.3,0.6,3.5c0,1.8-0.3,3.4-1,4.8c-0.7,1.4-1.6,2.6-2.8,3.6c-1.2,1-2.6,1.7-4.2,2.2c-1.6,0.5-3.3,0.8-5.1,0.8
			c-1.6,0-3.1-0.2-4.3-0.6c-1.3-0.4-2.3-0.9-3.2-1.6s-1.5-1.4-2-2.3C0.2,54.8,0,53.9,0,53c0-0.4,0.1-0.8,0.2-1.2
			c0.1-0.4,0.3-0.8,0.5-1.2c0.2-0.4,0.5-0.7,0.9-0.9c0.4-0.2,0.8-0.4,1.2-0.4c0.5,0,0.9,0.1,1.2,0.4c0.3,0.2,0.5,0.6,0.7,1
			C4.8,51,5,51.4,5.1,51.9c0.1,0.5,0.2,1,0.4,1.6c0.1,0.5,0.3,1,0.5,1.6c0.2,0.5,0.5,1,0.8,1.4c0.3,0.4,0.8,0.7,1.3,1
			C8.6,57.6,9.2,57.7,10,57.7z"/>
		<path class="st0" d="M35.4,52.1c0,0.2,0,0.5-0.1,0.8c-0.1,0.3-0.2,0.6-0.5,0.8c-0.3,0.3-0.6,0.5-1.1,0.7c-0.5,0.2-1.2,0.3-2,0.3
			c-0.8,0-1.5-0.1-2-0.3c-0.5-0.2-0.8-0.4-1.1-0.7c-0.2-0.3-0.4-0.6-0.4-0.8c-0.1-0.3-0.1-0.5-0.1-0.7V33.6c0-0.5-0.1-0.9-0.3-1.2
			c-0.2-0.3-0.6-0.5-1.1-0.5c-0.3,0-0.5,0-0.7,0.1c-0.2,0.1-0.4,0.2-0.6,0.4l-0.5-0.6c0.4-0.3,0.8-0.6,1.2-0.9s0.9-0.6,1.5-0.8
			c0.5-0.2,1.1-0.4,1.7-0.6c0.6-0.1,1.2-0.2,1.9-0.2c1,0,1.8,0.1,2.4,0.4c0.6,0.3,1,0.6,1.3,1c0.3,0.4,0.4,0.8,0.5,1.3
			c0.1,0.5,0.1,0.9,0.1,1.2V52.1z M27.3,23.9c0-0.4,0.1-0.9,0.3-1.3c0.2-0.4,0.5-0.8,0.8-1.1c0.4-0.3,0.8-0.5,1.2-0.7
			c0.5-0.2,1-0.3,1.5-0.3c0.5,0,1.1,0.1,1.5,0.3c0.5,0.2,0.9,0.4,1.2,0.7c0.4,0.3,0.6,0.7,0.8,1.1c0.2,0.4,0.3,0.8,0.3,1.3
			c0,0.5-0.1,0.9-0.3,1.3c-0.2,0.4-0.5,0.7-0.8,1c-0.4,0.3-0.8,0.5-1.2,0.7c-0.5,0.2-1,0.3-1.5,0.3c-0.6,0-1.1-0.1-1.5-0.3
			c-0.5-0.2-0.9-0.4-1.2-0.7c-0.4-0.3-0.6-0.6-0.8-1C27.4,24.8,27.3,24.4,27.3,23.9z"/>
		<path class="st0" d="M55.6,42.3c0-2-0.1-3.6-0.3-4.8c-0.2-1.2-0.4-2.1-0.7-2.8s-0.6-1-1-1.2c-0.4-0.2-0.7-0.3-1.1-0.3
			c-0.5,0-0.9,0.1-1.2,0.4c-0.4,0.2-0.7,0.5-0.9,0.8c-0.3,0.3-0.5,0.6-0.7,1c-0.2,0.3-0.3,0.6-0.5,0.7v16c0,0.2,0,0.5-0.1,0.8
			c-0.1,0.3-0.2,0.6-0.5,0.8c-0.2,0.3-0.6,0.5-1.1,0.7c-0.5,0.2-1.2,0.3-2,0.3c-0.8,0-1.5-0.1-2-0.3c-0.5-0.2-0.9-0.4-1.1-0.7
			c-0.3-0.3-0.4-0.6-0.5-0.8c-0.1-0.3-0.1-0.5-0.1-0.7V33.6c0-0.5-0.1-0.9-0.3-1.2c-0.2-0.3-0.6-0.5-1.1-0.5c-0.3,0-0.5,0-0.7,0.1
			c-0.2,0.1-0.4,0.2-0.6,0.4l-0.5-0.6c0.4-0.3,0.8-0.6,1.2-0.9c0.5-0.3,0.9-0.6,1.5-0.8c0.5-0.2,1.1-0.4,1.7-0.6
			c0.6-0.1,1.2-0.2,1.9-0.2c1,0,1.8,0.2,2.4,0.5c0.6,0.3,1,0.8,1.3,1.2c0.3,0.5,0.4,1,0.5,1.5c0.1,0.5,0.1,1,0.1,1.3
			c0.6-0.8,1.3-1.6,2-2.3c0.3-0.3,0.6-0.6,1-0.8c0.4-0.3,0.8-0.5,1.2-0.7c0.4-0.2,0.9-0.4,1.3-0.5c0.5-0.1,1-0.2,1.4-0.2
			c1.1,0,2,0.2,2.9,0.6c0.8,0.4,1.5,1.1,2.1,2.1c0.6,1,1,2.3,1.3,3.9c0.3,1.6,0.5,3.6,0.5,6c0,2.3-0.2,4.3-0.6,6
			c-0.4,1.7-1,3.2-1.6,4.4c-0.7,1.2-1.4,2.2-2.3,2.9c-0.8,0.8-1.7,1.4-2.6,1.8c-0.9,0.4-1.7,0.7-2.5,0.9c-0.8,0.2-1.5,0.3-2,0.3
			l-0.3-1c0.5-0.1,0.9-0.3,1.3-0.5c0.4-0.2,0.8-0.6,1.1-1.1c0.3-0.5,0.6-1.1,0.9-1.8c0.3-0.7,0.5-1.6,0.7-2.7
			c0.2-1.1,0.3-2.3,0.4-3.8C55.5,46,55.6,44.3,55.6,42.3z"/>
	</g>
	<g>
		<path class="st0" d="M75.3,57.7c0.6,0,1.3-0.1,1.9-0.3c0.6-0.2,1.2-0.6,1.7-1.2c0.5-0.5,0.9-1.2,1.2-2.1c0.3-0.9,0.5-1.9,0.5-3.2
			c0-1.3-0.3-2.6-1-3.9c-0.7-1.3-1.5-2.5-2.5-3.7c-1-1.2-2.1-2.4-3.2-3.6c-1.2-1.2-2.2-2.4-3.2-3.7c-1-1.3-1.8-2.5-2.5-3.9
			c-0.7-1.3-1-2.7-1-4.2c0-1.5,0.3-2.8,0.8-3.9c0.5-1.2,1.3-2.2,2.2-3c0.9-0.8,2-1.5,3.2-1.9c1.2-0.4,2.5-0.7,3.9-0.7
			c1.5,0,2.8,0.2,4,0.5c1.2,0.3,2.1,0.7,2.9,1.3c0.8,0.5,1.4,1.2,1.8,1.9c0.4,0.7,0.6,1.5,0.6,2.3c0,0.4-0.1,0.8-0.2,1.2
			c-0.1,0.4-0.3,0.8-0.5,1.1c-0.2,0.3-0.5,0.6-0.9,0.8c-0.4,0.2-0.8,0.3-1.3,0.3c-0.6,0-1-0.2-1.3-0.5c-0.3-0.4-0.5-0.8-0.6-1.3
			c-0.1-0.5-0.3-1.1-0.3-1.7c-0.1-0.6-0.2-1.2-0.5-1.7c-0.2-0.5-0.5-1-0.9-1.3c-0.4-0.4-1-0.5-1.8-0.5c-0.4,0-0.9,0.1-1.3,0.3
			c-0.4,0.2-0.8,0.5-1.2,0.9c-0.3,0.4-0.6,0.9-0.8,1.5c-0.2,0.6-0.3,1.3-0.3,2.2c0,1,0.2,1.9,0.6,2.8c0.4,0.9,0.9,1.8,1.6,2.7
			c0.7,0.9,1.4,1.8,2.2,2.7c0.8,0.9,1.7,1.8,2.6,2.7c0.9,0.9,1.7,1.8,2.6,2.8c0.8,1,1.6,1.9,2.2,3c0.7,1,1.2,2.1,1.6,3.2
			c0.4,1.1,0.6,2.3,0.6,3.5c0,1.8-0.3,3.4-1,4.8c-0.7,1.4-1.6,2.6-2.8,3.6c-1.2,1-2.6,1.7-4.2,2.2c-1.6,0.5-3.3,0.8-5.1,0.8
			c-1.6,0-3.1-0.2-4.3-0.6c-1.3-0.4-2.3-0.9-3.2-1.6c-0.9-0.7-1.5-1.4-2-2.3c-0.4-0.9-0.7-1.7-0.7-2.6c0-0.4,0.1-0.8,0.2-1.2
			c0.1-0.4,0.3-0.8,0.5-1.2c0.2-0.4,0.5-0.7,0.9-0.9c0.4-0.2,0.8-0.4,1.2-0.4c0.5,0,0.9,0.1,1.2,0.4c0.3,0.2,0.5,0.6,0.7,1
			c0.2,0.4,0.3,0.9,0.4,1.4c0.1,0.5,0.2,1,0.4,1.6c0.1,0.5,0.3,1,0.5,1.6c0.2,0.5,0.5,1,0.8,1.4c0.3,0.4,0.8,0.7,1.3,1
			C73.9,57.6,74.5,57.7,75.3,57.7z"/>
		<path class="st0" d="M99.3,43.2c0,0.5,0.1,1.1,0.2,1.7c0.2,0.6,0.4,1.2,0.7,1.8c0.3,0.6,0.6,1.2,1.1,1.7c0.4,0.6,0.9,1,1.5,1.5
			c0.6,0.4,1.2,0.8,1.8,1c0.7,0.3,1.4,0.4,2.2,0.4c0.6,0,1.1-0.1,1.6-0.2c0.5-0.1,0.9-0.3,1.3-0.5c0.4-0.2,0.8-0.5,1.2-0.8
			c0.4-0.3,0.8-0.6,1.2-0.9l0.6,0.6c-0.4,0.5-0.8,1-1.4,1.6c-0.6,0.6-1.3,1.1-2.1,1.7c-0.8,0.5-1.8,1-2.9,1.3
			c-1.1,0.3-2.3,0.5-3.7,0.5c-1.4,0-2.7-0.3-4.1-0.8c-1.3-0.5-2.5-1.3-3.5-2.3c-1-1-1.8-2.3-2.5-3.8c-0.6-1.5-0.9-3.3-0.9-5.3
			c0-1.5,0.2-2.8,0.6-4c0.4-1.2,0.9-2.3,1.5-3.3c0.6-1,1.4-1.8,2.2-2.6c0.8-0.7,1.7-1.3,2.6-1.8c0.9-0.5,1.9-0.9,2.8-1.1
			c1-0.2,1.9-0.4,2.8-0.4c1.2,0,2.2,0.1,3.1,0.4c0.9,0.3,1.6,0.6,2.2,1c0.6,0.4,1,0.9,1.3,1.5c0.3,0.6,0.4,1.2,0.4,1.8
			c0,0.8-0.2,1.4-0.6,2c-0.4,0.6-1,1.1-1.7,1.6L99.3,43.2z M104.1,38.4c0.2-0.1,0.4-0.3,0.5-0.4c0.1-0.1,0.2-0.3,0.3-0.4
			c0.1-0.2,0.1-0.4,0.2-0.6c0-0.2,0.1-0.6,0.1-0.9c0-0.4,0-0.8-0.1-1.3c-0.1-0.5-0.2-0.9-0.4-1.4c-0.2-0.4-0.5-0.8-0.8-1.1
			c-0.3-0.3-0.7-0.4-1.2-0.4c-0.6,0-1.1,0.2-1.5,0.5c-0.4,0.3-0.7,0.8-1,1.3c-0.3,0.5-0.5,1.2-0.6,1.9c-0.2,0.7-0.3,1.4-0.3,2.1
			c-0.1,0.7-0.1,1.4-0.1,2c0,0.6,0,1.2,0,1.6L104.1,38.4z"/>
		<path class="st0" d="M123.5,34.4c0.6-0.9,1.3-1.8,1.9-2.5c0.3-0.3,0.6-0.6,0.9-0.9c0.3-0.3,0.7-0.6,1-0.8c0.4-0.2,0.7-0.4,1.1-0.6
			c0.4-0.1,0.8-0.2,1.2-0.2c0.8,0,1.5,0.2,1.9,0.7c0.5,0.5,0.7,1.2,0.7,2c0,0.5,0,1.1-0.1,1.6c-0.1,0.5-0.3,1.1-0.5,1.8H131
			c-0.1-0.5-0.3-0.9-0.7-1.2c-0.4-0.3-0.9-0.5-1.5-0.5c-0.5,0-1,0.1-1.5,0.3c-0.5,0.2-0.9,0.4-1.4,0.7c-0.5,0.3-0.9,0.6-1.3,0.9
			c-0.4,0.3-0.8,0.6-1.1,0.9v15.6c0,0.2,0,0.5-0.1,0.7c-0.1,0.3-0.2,0.6-0.5,0.8c-0.2,0.3-0.6,0.5-1.1,0.7c-0.5,0.2-1.2,0.3-2,0.3
			c-0.8,0-1.5-0.1-2-0.3c-0.5-0.2-0.9-0.4-1.1-0.7c-0.3-0.3-0.4-0.6-0.5-0.8c-0.1-0.3-0.1-0.5-0.1-0.7V33.6c0-0.5-0.1-0.9-0.3-1.2
			c-0.2-0.3-0.6-0.5-1.1-0.5c-0.3,0-0.5,0-0.7,0.1c-0.2,0.1-0.4,0.2-0.6,0.4l-0.5-0.6c0.4-0.3,0.8-0.6,1.2-0.9
			c0.5-0.3,0.9-0.6,1.5-0.8c0.5-0.2,1.1-0.4,1.7-0.6c0.6-0.1,1.2-0.2,1.9-0.2c0.7,0,1.3,0.1,1.8,0.3c0.5,0.2,0.9,0.4,1.2,0.7
			c0.3,0.3,0.6,0.6,0.7,1c0.2,0.4,0.3,0.7,0.4,1.1c0.1,0.4,0.1,0.7,0.2,1.1C123.5,33.9,123.5,34.2,123.5,34.4z"/>
		<path class="st0" d="M143,52.1c0,0.2,0,0.5-0.1,0.8c-0.1,0.3-0.2,0.6-0.5,0.8c-0.3,0.3-0.6,0.5-1.1,0.7c-0.5,0.2-1.2,0.3-2,0.3
			c-0.8,0-1.5-0.1-2-0.3c-0.5-0.2-0.8-0.4-1.1-0.7c-0.2-0.3-0.4-0.6-0.4-0.8c-0.1-0.3-0.1-0.5-0.1-0.7V33.6c0-0.5-0.1-0.9-0.3-1.2
			c-0.2-0.3-0.6-0.5-1.1-0.5c-0.3,0-0.5,0-0.7,0.1c-0.2,0.1-0.4,0.2-0.6,0.4l-0.5-0.6c0.4-0.3,0.8-0.6,1.2-0.9
			c0.5-0.3,0.9-0.6,1.5-0.8c0.5-0.2,1.1-0.4,1.7-0.6c0.6-0.1,1.2-0.2,1.9-0.2c1,0,1.8,0.1,2.4,0.4c0.6,0.3,1,0.6,1.3,1
			c0.3,0.4,0.4,0.8,0.5,1.3c0.1,0.5,0.1,0.9,0.1,1.2V52.1z M134.9,23.9c0-0.4,0.1-0.9,0.3-1.3c0.2-0.4,0.5-0.8,0.8-1.1
			c0.4-0.3,0.8-0.5,1.2-0.7c0.5-0.2,1-0.3,1.5-0.3c0.5,0,1.1,0.1,1.5,0.3c0.5,0.2,0.9,0.4,1.2,0.7c0.4,0.3,0.6,0.7,0.8,1.1
			c0.2,0.4,0.3,0.8,0.3,1.3c0,0.5-0.1,0.9-0.3,1.3c-0.2,0.4-0.5,0.7-0.8,1c-0.4,0.3-0.8,0.5-1.2,0.7c-0.5,0.2-1,0.3-1.5,0.3
			c-0.6,0-1.1-0.1-1.5-0.3c-0.5-0.2-0.9-0.4-1.2-0.7c-0.4-0.3-0.6-0.6-0.8-1C135,24.8,134.9,24.4,134.9,23.9z"/>
		<path class="st0" d="M160.8,18.6c-0.4,0-0.9,0.1-1.3,0.3c-0.4,0.2-0.7,0.5-1,0.9c-0.3,0.4-0.5,1-0.7,1.6s-0.3,1.4-0.3,2.4v5.9h5.2
			v1.7h-5.2v18.9c0,2.2-0.3,4.2-0.9,6c-0.6,1.8-1.4,3.4-2.6,4.8c-1.2,1.3-2.6,2.4-4.3,3.1c-1.7,0.8-3.7,1.1-6,1.1
			c-0.8,0-1.6-0.1-2.3-0.2c-0.8-0.1-1.4-0.3-2-0.6s-1-0.5-1.4-0.8c-0.3-0.3-0.5-0.7-0.5-1.1c0-0.3,0-0.6,0.1-0.9
			c0.1-0.3,0.2-0.6,0.4-0.8c0.2-0.2,0.4-0.4,0.6-0.6c0.2-0.2,0.5-0.2,0.8-0.2c0.2,0,0.3,0.1,0.5,0.3c0.1,0.2,0.3,0.4,0.4,0.6
			c0.1,0.3,0.3,0.5,0.5,0.9c0.2,0.3,0.4,0.6,0.7,0.9c0.3,0.3,0.6,0.5,1.1,0.6c0.4,0.2,0.9,0.3,1.5,0.3c0.8,0,1.5-0.2,2.2-0.5
			c0.6-0.3,1.2-0.8,1.6-1.4c0.4-0.6,0.8-1.3,1.1-2c0.3-0.8,0.5-1.6,0.7-2.5c0.2-0.9,0.3-1.8,0.4-2.8c0.1-1,0.1-1.9,0.1-2.9V31.4
			h-4.4v-1.7h4.4v-2.8c0-1.4,0.2-2.6,0.5-3.7c0.3-1,0.8-1.9,1.4-2.7c0.6-0.7,1.2-1.3,1.9-1.8c0.7-0.5,1.4-0.8,2.2-1.1
			c0.7-0.3,1.5-0.5,2.2-0.6c0.7-0.1,1.3-0.1,1.8-0.1c1.1,0,2.1,0.1,3,0.3c0.9,0.2,1.6,0.4,2.2,0.7c0.6,0.3,1,0.6,1.3,1
			c0.3,0.4,0.5,0.7,0.5,1.1c0,0.3,0,0.6-0.1,0.9c-0.1,0.3-0.2,0.6-0.4,0.8c-0.2,0.2-0.4,0.4-0.6,0.6c-0.2,0.2-0.5,0.2-0.8,0.2
			c-0.2,0-0.3-0.1-0.5-0.3c-0.1-0.2-0.3-0.4-0.5-0.7c-0.2-0.3-0.3-0.6-0.5-0.9c-0.2-0.3-0.4-0.6-0.7-0.9c-0.3-0.3-0.6-0.5-1-0.7
			C161.8,18.7,161.3,18.6,160.8,18.6z"/>
	</g>
	<g>
		<path class="st1" d="M23.9,9.3c-1.1,1.1-2.5,1.5-4,1.5c-3.9,0-5.5-2.7-5.5-5.4c0-2.7,1.8-5.5,5.5-5.5c1.4,0,2.7,0.5,3.8,1.6
			l-1.3,1.3c-0.7-0.7-1.6-1-2.5-1c-2.5,0-3.6,1.9-3.6,3.6c0,1.7,1,3.5,3.6,3.5c0.9,0,1.9-0.4,2.6-1.1L23.9,9.3z"/>
		<path class="st1" d="M41.1,5.5c0,2.7-1.7,5.4-5.3,5.4c-3.7,0-5.3-2.6-5.3-5.4c0-2.7,1.8-5.5,5.3-5.5C39.4,0,41.2,2.7,41.1,5.5z
			 M32.4,5.5c0,1.7,1,3.5,3.4,3.5c2.5,0,3.4-1.8,3.4-3.6c0-1.8-1-3.7-3.4-3.7C33.4,1.8,32.3,3.8,32.4,5.5z"/>
		<path class="st1" d="M50.5,0.2v8.6h5.3v1.8h-7.3V0.2H50.5z"/>
		<path class="st1" d="M70.9,10.6h-7.8c0-3.5,0-6.9,0-10.4h7.8v1.9h-5.8v2.4h5.6v1.8h-5.6v2.3h5.8V10.6z"/>
		<path class="st1" d="M87.5,9.3c-1.1,1.1-2.5,1.5-4,1.5c-3.9,0-5.5-2.7-5.5-5.4C78,2.8,79.8,0,83.6,0c1.4,0,2.7,0.5,3.8,1.6
			l-1.3,1.3c-0.7-0.7-1.6-1-2.5-1c-2.5,0-3.6,1.9-3.6,3.6C80,7.2,81,9,83.6,9c0.9,0,1.9-0.4,2.6-1.1L87.5,9.3z"/>
		<path class="st1" d="M97.1,2h-3.3V0.2c3,0,5.5,0,8.6,0V2h-3.3v8.6h-2V2z"/>
		<path class="st1" d="M109.5,10.6V0.2h1.9v10.4H109.5z"/>
		<path class="st1" d="M124.9,10.7h-2l-4.3-10.4h2.2l3.1,8.1l3.1-8.1h2.2L124.9,10.7z"/>
		<path class="st1" d="M146.5,5.5c0,2.7-1.7,5.4-5.3,5.4c-3.7,0-5.3-2.6-5.3-5.4c0-2.7,1.8-5.5,5.3-5.5C144.8,0,146.6,2.7,146.5,5.5
			z M137.8,5.5c0,1.7,1,3.5,3.4,3.5c2.5,0,3.4-1.8,3.4-3.6c0-1.8-1-3.7-3.4-3.7C138.8,1.8,137.8,3.8,137.8,5.5z"/>
	</g>
</g>
</svg>
