<?xml version="1.0" encoding="utf-8"?>
<!-- Generator: Adobe Illustrator 21.1.0, SVG Export Plug-In . SVG Version: 6.00 Build 0)  -->
<svg version="1.1" id="Capa_1" xmlns="http://www.w3.org/2000/svg" xmlns:xlink="http://www.w3.org/1999/xlink" x="0px" y="0px"
	 viewBox="0 0 65.5 65.4" style="enable-background:new 0 0 65.5 65.4;" xml:space="preserve">
<style type="text/css">
	.st0{fill:#FFFFFF;}
	.st1{fill:#88F2B8;}
	.st2{filter:url(#Adobe_OpacityMaskFilter);}
	.st3{clip-path:url(#SVGID_3_);fill:url(#SVGID_5_);}
	.st4{clip-path:url(#SVGID_3_);mask:url(#SVGID_4_);fill:url(#SVGID_6_);}
</style>
<g>
	<g>
		<path class="st0" d="M-201.3-101c0.6,0,1.3-0.1,1.9-0.3c0.6-0.2,1.2-0.6,1.7-1.2c0.5-0.5,0.9-1.2,1.2-2.1c0.3-0.9,0.5-1.9,0.5-3.2
			c0-1.3-0.3-2.6-1-3.9c-0.7-1.3-1.5-2.5-2.5-3.7c-1-1.2-2.1-2.4-3.2-3.6c-1.2-1.2-2.2-2.4-3.2-3.7c-1-1.3-1.8-2.5-2.5-3.9
			c-0.7-1.3-1-2.7-1-4.2c0-1.5,0.3-2.8,0.8-3.9c0.5-1.2,1.3-2.2,2.2-3c0.9-0.8,2-1.5,3.2-1.9c1.2-0.4,2.5-0.7,3.9-0.7
			c1.5,0,2.8,0.2,4,0.5c1.2,0.3,2.1,0.7,2.9,1.3c0.8,0.5,1.4,1.2,1.8,1.9c0.4,0.7,0.6,1.5,0.6,2.3c0,0.4-0.1,0.8-0.2,1.2
			c-0.1,0.4-0.3,0.8-0.5,1.1c-0.2,0.3-0.5,0.6-0.9,0.8c-0.4,0.2-0.8,0.3-1.3,0.3c-0.6,0-1-0.2-1.3-0.5c-0.3-0.4-0.5-0.8-0.6-1.3
			c-0.1-0.5-0.3-1.1-0.3-1.7c-0.1-0.6-0.2-1.2-0.5-1.7c-0.2-0.5-0.5-1-0.9-1.3c-0.4-0.4-1-0.5-1.8-0.5c-0.4,0-0.9,0.1-1.3,0.3
			c-0.4,0.2-0.8,0.5-1.2,0.9c-0.3,0.4-0.6,0.9-0.8,1.5c-0.2,0.6-0.3,1.3-0.3,2.2c0,1,0.2,1.9,0.6,2.8c0.4,0.9,0.9,1.8,1.6,2.7
			c0.7,0.9,1.4,1.8,2.2,2.7c0.8,0.9,1.7,1.8,2.6,2.7c0.9,0.9,1.7,1.8,2.6,2.8c0.8,1,1.6,1.9,2.2,3c0.7,1,1.2,2.1,1.6,3.2
			c0.4,1.1,0.6,2.3,0.6,3.5c0,1.8-0.3,3.4-1,4.8c-0.7,1.4-1.6,2.6-2.8,3.6c-1.2,1-2.6,1.7-4.2,2.2c-1.6,0.5-3.3,0.8-5.1,0.8
			c-1.6,0-3.1-0.2-4.3-0.6c-1.3-0.4-2.3-0.9-3.2-1.6c-0.9-0.7-1.5-1.4-2-2.3c-0.4-0.9-0.7-1.7-0.7-2.6c0-0.4,0.1-0.8,0.2-1.2
			c0.1-0.4,0.3-0.8,0.5-1.2c0.2-0.4,0.5-0.7,0.9-0.9c0.4-0.2,0.8-0.4,1.2-0.4c0.5,0,0.9,0.1,1.2,0.4c0.3,0.2,0.5,0.6,0.7,1
			c0.2,0.4,0.3,0.9,0.4,1.4c0.1,0.5,0.2,1,0.4,1.6c0.1,0.5,0.3,1,0.5,1.6c0.2,0.5,0.5,1,0.8,1.4c0.3,0.4,0.8,0.7,1.3,1
			C-202.7-101.2-202.1-101-201.3-101z"/>
		<path class="st0" d="M-175.9-106.7c0,0.2,0,0.5-0.1,0.8c-0.1,0.3-0.2,0.6-0.5,0.8c-0.3,0.3-0.6,0.5-1.1,0.7
			c-0.5,0.2-1.2,0.3-2,0.3c-0.8,0-1.5-0.1-2-0.3c-0.5-0.2-0.8-0.4-1.1-0.7c-0.2-0.3-0.4-0.6-0.4-0.8c-0.1-0.3-0.1-0.5-0.1-0.7v-18.5
			c0-0.5-0.1-0.9-0.3-1.2c-0.2-0.3-0.6-0.5-1.1-0.5c-0.3,0-0.5,0-0.7,0.1c-0.2,0.1-0.4,0.2-0.6,0.4l-0.5-0.6
			c0.4-0.3,0.8-0.6,1.2-0.9c0.5-0.3,0.9-0.6,1.5-0.8c0.5-0.2,1.1-0.4,1.7-0.6c0.6-0.1,1.2-0.2,1.9-0.2c1,0,1.8,0.1,2.4,0.4
			c0.6,0.3,1,0.6,1.3,1c0.3,0.4,0.4,0.8,0.5,1.3c0.1,0.5,0.1,0.9,0.1,1.2V-106.7z M-184-134.9c0-0.4,0.1-0.9,0.3-1.3
			c0.2-0.4,0.5-0.8,0.8-1.1c0.4-0.3,0.8-0.5,1.2-0.7c0.5-0.2,1-0.3,1.5-0.3c0.5,0,1.1,0.1,1.5,0.3c0.5,0.2,0.9,0.4,1.2,0.7
			c0.4,0.3,0.6,0.7,0.8,1.1c0.2,0.4,0.3,0.8,0.3,1.3c0,0.5-0.1,0.9-0.3,1.3c-0.2,0.4-0.5,0.7-0.8,1c-0.4,0.3-0.8,0.5-1.2,0.7
			c-0.5,0.2-1,0.3-1.5,0.3c-0.6,0-1.1-0.1-1.5-0.3c-0.5-0.2-0.9-0.4-1.2-0.7c-0.4-0.3-0.6-0.6-0.8-1C-183.9-134-184-134.4-184-134.9
			z"/>
		<path class="st0" d="M-155.7-116.5c0-2-0.1-3.6-0.3-4.8c-0.2-1.2-0.4-2.1-0.7-2.8c-0.3-0.6-0.6-1-1-1.2c-0.4-0.2-0.7-0.3-1.1-0.3
			c-0.5,0-0.9,0.1-1.2,0.4c-0.4,0.2-0.7,0.5-0.9,0.8c-0.3,0.3-0.5,0.6-0.7,1c-0.2,0.3-0.3,0.6-0.5,0.7v16c0,0.2,0,0.5-0.1,0.8
			c-0.1,0.3-0.2,0.6-0.5,0.8c-0.2,0.3-0.6,0.5-1.1,0.7c-0.5,0.2-1.2,0.3-2,0.3c-0.8,0-1.5-0.1-2-0.3c-0.5-0.2-0.9-0.4-1.1-0.7
			c-0.3-0.3-0.4-0.6-0.5-0.8c-0.1-0.3-0.1-0.5-0.1-0.7v-18.5c0-0.5-0.1-0.9-0.3-1.2c-0.2-0.3-0.6-0.5-1.1-0.5c-0.3,0-0.5,0-0.7,0.1
			c-0.2,0.1-0.4,0.2-0.6,0.4l-0.5-0.6c0.4-0.3,0.8-0.6,1.2-0.9c0.5-0.3,0.9-0.6,1.5-0.8c0.5-0.2,1.1-0.4,1.7-0.6
			c0.6-0.1,1.2-0.2,1.9-0.2c1,0,1.8,0.2,2.4,0.5c0.6,0.3,1,0.8,1.3,1.2c0.3,0.5,0.4,1,0.5,1.5c0.1,0.5,0.1,1,0.1,1.3
			c0.6-0.8,1.3-1.6,2-2.3c0.3-0.3,0.6-0.6,1-0.8c0.4-0.3,0.8-0.5,1.2-0.7c0.4-0.2,0.9-0.4,1.3-0.5c0.5-0.1,1-0.2,1.4-0.2
			c1.1,0,2,0.2,2.9,0.6c0.8,0.4,1.5,1.1,2.1,2.1c0.6,1,1,2.3,1.3,3.9c0.3,1.6,0.5,3.6,0.5,6c0,2.3-0.2,4.3-0.6,6
			c-0.4,1.7-1,3.2-1.6,4.4c-0.7,1.2-1.4,2.2-2.3,2.9c-0.8,0.8-1.7,1.4-2.6,1.8c-0.9,0.4-1.7,0.7-2.5,0.9c-0.8,0.2-1.5,0.3-2,0.3
			l-0.3-1c0.5-0.1,0.9-0.3,1.3-0.5c0.4-0.2,0.8-0.6,1.1-1.1c0.3-0.5,0.6-1.1,0.9-1.8c0.3-0.7,0.5-1.6,0.7-2.7
			c0.2-1.1,0.3-2.3,0.4-3.8C-155.8-112.8-155.7-114.5-155.7-116.5z"/>
	</g>
	<g>
		<path class="st0" d="M-136-101c0.6,0,1.3-0.1,1.9-0.3c0.6-0.2,1.2-0.6,1.7-1.2c0.5-0.5,0.9-1.2,1.2-2.1c0.3-0.9,0.5-1.9,0.5-3.2
			c0-1.3-0.3-2.6-1-3.9c-0.7-1.3-1.5-2.5-2.5-3.7c-1-1.2-2.1-2.4-3.2-3.6c-1.2-1.2-2.2-2.4-3.2-3.7c-1-1.3-1.8-2.5-2.5-3.9
			c-0.7-1.3-1-2.7-1-4.2c0-1.5,0.3-2.8,0.8-3.9c0.5-1.2,1.3-2.2,2.2-3c0.9-0.8,2-1.5,3.2-1.9c1.2-0.4,2.5-0.7,3.9-0.7
			c1.5,0,2.8,0.2,4,0.5c1.2,0.3,2.1,0.7,2.9,1.3c0.8,0.5,1.4,1.2,1.8,1.9c0.4,0.7,0.6,1.5,0.6,2.3c0,0.4-0.1,0.8-0.2,1.2
			c-0.1,0.4-0.3,0.8-0.5,1.1c-0.2,0.3-0.5,0.6-0.9,0.8c-0.4,0.2-0.8,0.3-1.3,0.3c-0.6,0-1-0.2-1.3-0.5c-0.3-0.4-0.5-0.8-0.6-1.3
			c-0.1-0.5-0.3-1.1-0.3-1.7c-0.1-0.6-0.2-1.2-0.5-1.7c-0.2-0.5-0.5-1-0.9-1.3c-0.4-0.4-1-0.5-1.8-0.5c-0.4,0-0.9,0.1-1.3,0.3
			c-0.4,0.2-0.8,0.5-1.2,0.9c-0.3,0.4-0.6,0.9-0.8,1.5c-0.2,0.6-0.3,1.3-0.3,2.2c0,1,0.2,1.9,0.6,2.8c0.4,0.9,0.9,1.8,1.6,2.7
			c0.7,0.9,1.4,1.8,2.2,2.7c0.8,0.9,1.7,1.8,2.6,2.7c0.9,0.9,1.7,1.8,2.6,2.8c0.8,1,1.6,1.9,2.2,3c0.7,1,1.2,2.1,1.6,3.2
			c0.4,1.1,0.6,2.3,0.6,3.5c0,1.8-0.3,3.4-1,4.8c-0.7,1.4-1.6,2.6-2.8,3.6c-1.2,1-2.6,1.7-4.2,2.2c-1.6,0.5-3.3,0.8-5.1,0.8
			c-1.6,0-3.1-0.2-4.3-0.6c-1.3-0.4-2.3-0.9-3.2-1.6c-0.9-0.7-1.5-1.4-2-2.3c-0.4-0.9-0.7-1.7-0.7-2.6c0-0.4,0.1-0.8,0.2-1.2
			c0.1-0.4,0.3-0.8,0.5-1.2c0.2-0.4,0.5-0.7,0.9-0.9c0.4-0.2,0.8-0.4,1.2-0.4c0.5,0,0.9,0.1,1.2,0.4c0.3,0.2,0.5,0.6,0.7,1
			c0.2,0.4,0.3,0.9,0.4,1.4c0.1,0.5,0.2,1,0.4,1.6c0.1,0.5,0.3,1,0.5,1.6c0.2,0.5,0.5,1,0.8,1.4c0.3,0.4,0.8,0.7,1.3,1
			C-137.4-101.2-136.8-101-136-101z"/>
		<path class="st0" d="M-112-115.5c0,0.5,0.1,1.1,0.2,1.7c0.2,0.6,0.4,1.2,0.7,1.8c0.3,0.6,0.6,1.2,1.1,1.7c0.4,0.6,0.9,1,1.5,1.5
			c0.6,0.4,1.2,0.8,1.8,1c0.7,0.3,1.4,0.4,2.2,0.4c0.6,0,1.1-0.1,1.6-0.2c0.5-0.1,0.9-0.3,1.3-0.5c0.4-0.2,0.8-0.5,1.2-0.8
			c0.4-0.3,0.8-0.6,1.2-0.9l0.6,0.6c-0.4,0.5-0.8,1-1.4,1.6c-0.6,0.6-1.3,1.1-2.1,1.7c-0.8,0.5-1.8,1-2.9,1.3
			c-1.1,0.3-2.3,0.5-3.7,0.5c-1.4,0-2.7-0.3-4.1-0.8c-1.3-0.5-2.5-1.3-3.5-2.3c-1-1-1.8-2.3-2.5-3.8c-0.6-1.5-0.9-3.3-0.9-5.3
			c0-1.5,0.2-2.8,0.6-4c0.4-1.2,0.9-2.3,1.5-3.3c0.6-1,1.4-1.8,2.2-2.6c0.8-0.7,1.7-1.3,2.6-1.8c0.9-0.5,1.9-0.9,2.8-1.1
			c1-0.2,1.9-0.4,2.8-0.4c1.2,0,2.2,0.1,3.1,0.4c0.9,0.3,1.6,0.6,2.2,1c0.6,0.4,1,0.9,1.3,1.5c0.3,0.6,0.4,1.2,0.4,1.8
			c0,0.8-0.2,1.4-0.6,2c-0.4,0.6-1,1.1-1.7,1.6L-112-115.5z M-107.2-120.4c0.2-0.1,0.4-0.3,0.5-0.4c0.1-0.1,0.2-0.3,0.3-0.4
			c0.1-0.2,0.1-0.4,0.2-0.6c0-0.2,0.1-0.6,0.1-0.9c0-0.4,0-0.8-0.1-1.3c-0.1-0.5-0.2-0.9-0.4-1.4c-0.2-0.4-0.5-0.8-0.8-1.1
			c-0.3-0.3-0.7-0.4-1.2-0.4c-0.6,0-1.1,0.2-1.5,0.5c-0.4,0.3-0.7,0.8-1,1.3c-0.3,0.5-0.5,1.2-0.6,1.9c-0.2,0.7-0.3,1.4-0.3,2.1
			c-0.1,0.7-0.1,1.4-0.1,2c0,0.6,0,1.2,0,1.6L-107.2-120.4z"/>
		<path class="st0" d="M-87.8-124.3c0.6-0.9,1.3-1.8,1.9-2.5c0.3-0.3,0.6-0.6,0.9-0.9c0.3-0.3,0.7-0.6,1-0.8
			c0.4-0.2,0.7-0.4,1.1-0.6c0.4-0.1,0.8-0.2,1.2-0.2c0.8,0,1.5,0.2,1.9,0.7c0.5,0.5,0.7,1.2,0.7,2c0,0.5,0,1.1-0.1,1.6
			c-0.1,0.5-0.3,1.1-0.5,1.8h-0.7c-0.1-0.5-0.3-0.9-0.7-1.2c-0.4-0.3-0.9-0.5-1.5-0.5c-0.5,0-1,0.1-1.5,0.3
			c-0.5,0.2-0.9,0.4-1.4,0.7c-0.5,0.3-0.9,0.6-1.3,0.9c-0.4,0.3-0.8,0.6-1.1,0.9v15.6c0,0.2,0,0.5-0.1,0.7s-0.2,0.6-0.5,0.8
			c-0.2,0.3-0.6,0.5-1.1,0.7c-0.5,0.2-1.2,0.3-2,0.3c-0.8,0-1.5-0.1-2-0.3c-0.5-0.2-0.9-0.4-1.1-0.7c-0.3-0.3-0.4-0.6-0.5-0.8
			c-0.1-0.3-0.1-0.5-0.1-0.7v-18.5c0-0.5-0.1-0.9-0.3-1.2c-0.2-0.3-0.6-0.5-1.1-0.5c-0.3,0-0.5,0-0.7,0.1c-0.2,0.1-0.4,0.2-0.6,0.4
			l-0.5-0.6c0.4-0.3,0.8-0.6,1.2-0.9c0.5-0.3,0.9-0.6,1.5-0.8c0.5-0.2,1.1-0.4,1.7-0.6c0.6-0.1,1.2-0.2,1.9-0.2
			c0.7,0,1.3,0.1,1.8,0.3c0.5,0.2,0.9,0.4,1.2,0.7c0.3,0.3,0.6,0.6,0.7,1c0.2,0.4,0.3,0.7,0.4,1.1c0.1,0.4,0.1,0.7,0.2,1.1
			C-87.8-124.9-87.8-124.6-87.8-124.3z"/>
		<path class="st0" d="M-68.3-106.7c0,0.2,0,0.5-0.1,0.8c-0.1,0.3-0.2,0.6-0.5,0.8c-0.3,0.3-0.6,0.5-1.1,0.7c-0.5,0.2-1.2,0.3-2,0.3
			c-0.8,0-1.5-0.1-2-0.3c-0.5-0.2-0.8-0.4-1.1-0.7c-0.2-0.3-0.4-0.6-0.4-0.8c-0.1-0.3-0.1-0.5-0.1-0.7v-18.5c0-0.5-0.1-0.9-0.3-1.2
			c-0.2-0.3-0.6-0.5-1.1-0.5c-0.3,0-0.5,0-0.7,0.1c-0.2,0.1-0.4,0.2-0.6,0.4l-0.5-0.6c0.4-0.3,0.8-0.6,1.2-0.9
			c0.5-0.3,0.9-0.6,1.5-0.8c0.5-0.2,1.1-0.4,1.7-0.6c0.6-0.1,1.2-0.2,1.9-0.2c1,0,1.8,0.1,2.4,0.4c0.6,0.3,1,0.6,1.3,1
			c0.3,0.4,0.4,0.8,0.5,1.3c0.1,0.5,0.1,0.9,0.1,1.2V-106.7z M-76.4-134.9c0-0.4,0.1-0.9,0.3-1.3c0.2-0.4,0.5-0.8,0.8-1.1
			c0.4-0.3,0.8-0.5,1.2-0.7c0.5-0.2,1-0.3,1.5-0.3c0.5,0,1.1,0.1,1.5,0.3c0.5,0.2,0.9,0.4,1.2,0.7c0.4,0.3,0.6,0.7,0.8,1.1
			c0.2,0.4,0.3,0.8,0.3,1.3c0,0.5-0.1,0.9-0.3,1.3c-0.2,0.4-0.5,0.7-0.8,1c-0.4,0.3-0.8,0.5-1.2,0.7c-0.5,0.2-1,0.3-1.5,0.3
			c-0.6,0-1.1-0.1-1.5-0.3c-0.5-0.2-0.9-0.4-1.2-0.7c-0.4-0.3-0.6-0.6-0.8-1C-76.3-134-76.4-134.4-76.4-134.9z"/>
		<path class="st0" d="M-50.5-140.2c-0.4,0-0.9,0.1-1.3,0.3c-0.4,0.2-0.7,0.5-1,0.9c-0.3,0.4-0.5,1-0.7,1.6
			c-0.2,0.7-0.3,1.4-0.3,2.4v5.9h5.2v1.7h-5.2v18.9c0,2.2-0.3,4.2-0.9,6c-0.6,1.8-1.4,3.4-2.6,4.8c-1.2,1.3-2.6,2.4-4.3,3.1
			c-1.7,0.8-3.7,1.1-6,1.1c-0.8,0-1.6-0.1-2.3-0.2c-0.8-0.1-1.4-0.3-2-0.6s-1-0.5-1.4-0.8c-0.3-0.3-0.5-0.7-0.5-1.1
			c0-0.3,0-0.6,0.1-0.9c0.1-0.3,0.2-0.6,0.4-0.8c0.2-0.2,0.4-0.4,0.6-0.6c0.2-0.2,0.5-0.2,0.8-0.2c0.2,0,0.3,0.1,0.5,0.3
			c0.1,0.2,0.3,0.4,0.4,0.6c0.1,0.3,0.3,0.5,0.5,0.9c0.2,0.3,0.4,0.6,0.7,0.9c0.3,0.3,0.6,0.5,1.1,0.6c0.4,0.2,0.9,0.3,1.5,0.3
			c0.8,0,1.5-0.2,2.2-0.5c0.6-0.3,1.2-0.8,1.6-1.4c0.4-0.6,0.8-1.3,1.1-2c0.3-0.8,0.5-1.6,0.7-2.5c0.2-0.9,0.3-1.8,0.4-2.8
			c0.1-1,0.1-1.9,0.1-2.9v-20.1h-4.4v-1.7h4.4v-2.8c0-1.4,0.2-2.6,0.5-3.7c0.3-1,0.8-1.9,1.4-2.7c0.6-0.7,1.2-1.3,1.9-1.8
			c0.7-0.5,1.4-0.8,2.2-1.1c0.7-0.3,1.5-0.5,2.2-0.6c0.7-0.1,1.3-0.1,1.8-0.1c1.1,0,2.1,0.1,3,0.3c0.9,0.2,1.6,0.4,2.2,0.7
			c0.6,0.3,1,0.6,1.3,1c0.3,0.4,0.5,0.7,0.5,1.1c0,0.3,0,0.6-0.1,0.9c-0.1,0.3-0.2,0.6-0.4,0.8c-0.2,0.2-0.4,0.4-0.6,0.6
			c-0.2,0.2-0.5,0.2-0.8,0.2c-0.2,0-0.3-0.1-0.5-0.3c-0.1-0.2-0.3-0.4-0.5-0.7c-0.2-0.3-0.3-0.6-0.5-0.9c-0.2-0.3-0.4-0.6-0.7-0.9
			c-0.3-0.3-0.6-0.5-1-0.7C-49.5-140.1-50-140.2-50.5-140.2z"/>
	</g>
	<g>
		<path class="st1" d="M-187.4-149.5c-1.1,1.1-2.5,1.5-4,1.5c-3.9,0-5.5-2.7-5.5-5.4c0-2.7,1.8-5.5,5.5-5.5c1.4,0,2.7,0.5,3.8,1.6
			l-1.3,1.3c-0.7-0.7-1.6-1-2.5-1c-2.5,0-3.6,1.9-3.6,3.6c0,1.7,1,3.5,3.6,3.5c0.9,0,1.9-0.4,2.6-1.1L-187.4-149.5z"/>
		<path class="st1" d="M-170.2-153.3c0,2.7-1.7,5.4-5.3,5.4c-3.7,0-5.3-2.6-5.3-5.4c0-2.7,1.8-5.5,5.3-5.5
			C-171.9-158.8-170.1-156-170.2-153.3z M-178.9-153.3c0,1.7,1,3.5,3.4,3.5c2.5,0,3.4-1.8,3.4-3.6c0-1.8-1-3.7-3.4-3.7
			C-178-157-179-155-178.9-153.3z"/>
		<path class="st1" d="M-160.8-158.6v8.6h5.3v1.8h-7.3v-10.4H-160.8z"/>
		<path class="st1" d="M-140.4-148.2h-7.8c0-3.5,0-6.9,0-10.4h7.8v1.9h-5.8v2.4h5.6v1.8h-5.6v2.3h5.8V-148.2z"/>
		<path class="st1" d="M-123.8-149.5c-1.1,1.1-2.5,1.5-4,1.5c-3.9,0-5.5-2.7-5.5-5.4c0-2.7,1.8-5.5,5.5-5.5c1.4,0,2.7,0.5,3.8,1.6
			l-1.3,1.3c-0.7-0.7-1.6-1-2.5-1c-2.5,0-3.6,1.9-3.6,3.6c0,1.7,1,3.5,3.6,3.5c0.9,0,1.9-0.4,2.6-1.1L-123.8-149.5z"/>
		<path class="st1" d="M-114.2-156.8h-3.3v-1.8c3,0,5.5,0,8.6,0v1.8h-3.3v8.6h-2V-156.8z"/>
		<path class="st1" d="M-101.8-148.2v-10.4h1.9v10.4H-101.8z"/>
		<path class="st1" d="M-86.4-148.1h-2l-4.3-10.4h2.2l3.1,8.1l3.1-8.1h2.2L-86.4-148.1z"/>
		<path class="st1" d="M-64.8-153.3c0,2.7-1.7,5.4-5.3,5.4c-3.7,0-5.3-2.6-5.3-5.4c0-2.7,1.8-5.5,5.3-5.5
			C-66.5-158.8-64.7-156-64.8-153.3z M-73.5-153.3c0,1.7,1,3.5,3.4,3.5c2.5,0,3.4-1.8,3.4-3.6c0-1.8-1-3.7-3.4-3.7
			C-72.5-157-73.5-155-73.5-153.3z"/>
	</g>
</g>
<g>
	<g>
		<path class="st1" d="M65.5,32.7c0,18.1-14.7,32.7-32.7,32.7C14.7,65.5,0,50.8,0,32.7C0,14.7,14.7,0,32.7,0
			C50.8,0,65.5,14.7,65.5,32.7"/>
		<g>
			<defs>
				<path id="SVGID_1_" d="M18.6,25.9c0,3,10.2,11.6,9.1,15c-1.1,3.4-3.2,3.4-6.4,3.4c-3.2,0-6.1-2.8-6.1-2.8L30,65.4
					c3.6,0,15.2,1.1,25.9-9.5c7.1-7,9.9-15.5,9.6-25.2l-20.1-9.1l-5.6,1.2L38,26.1l-11.8-5C26.2,21.2,18.6,22.9,18.6,25.9"/>
			</defs>
			<linearGradient id="SVGID_2_" gradientUnits="userSpaceOnUse" x1="55.0385" y1="56.7494" x2="24.2732" y2="20.0847">
				<stop  offset="0" style="stop-color:#42B3B8;stop-opacity:0"/>
				<stop  offset="1" style="stop-color:#2F9FAE"/>
			</linearGradient>
			<use xlink:href="#SVGID_1_"  style="overflow:visible;fill:url(#SVGID_2_);"/>
			<clipPath id="SVGID_3_">
				<use xlink:href="#SVGID_1_"  style="overflow:visible;"/>
			</clipPath>
			<defs>
				<filter id="Adobe_OpacityMaskFilter" filterUnits="userSpaceOnUse" x="-4.5" y="-0.8" width="89.9" height="89.2">
					<feColorMatrix  type="matrix" values="1 0 0 0 0  0 1 0 0 0  0 0 1 0 0  0 0 0 1 0"/>
				</filter>
			</defs>
			<mask maskUnits="userSpaceOnUse" x="-4.5" y="-0.8" width="89.9" height="89.2" id="SVGID_4_">
				<g class="st2">
					
						<linearGradient id="SVGID_5_" gradientUnits="userSpaceOnUse" x1="272.9792" y1="764.6901" x2="274.1144" y2="764.6901" gradientTransform="matrix(-20.7092 -35.8694 -35.8694 20.7092 33132.2383 -5983.9629)">
						<stop  offset="0" style="stop-color:#000000"/>
						<stop  offset="1" style="stop-color:#FFFFFF"/>
					</linearGradient>
					<polygon class="st3" points="27.7,88.4 -4.5,32.5 53.1,-0.8 85.4,55.1 					"/>
				</g>
			</mask>
			
				<linearGradient id="SVGID_6_" gradientUnits="userSpaceOnUse" x1="272.911" y1="764.5961" x2="274.2121" y2="764.8255" gradientTransform="matrix(-20.7092 -35.8694 -35.8694 20.7092 33132.2383 -5983.9863)">
				<stop  offset="0" style="stop-color:#42B3B8;stop-opacity:0"/>
				<stop  offset="1" style="stop-color:#2F9FAE"/>
			</linearGradient>
			<polygon class="st4" points="27.7,88.4 -4.5,32.5 53.1,-0.8 85.4,55.1 			"/>
		</g>
		<path class="st0" d="M25.2,22.8c-0.4,0-0.7,0-1,0.1c-0.3,0.1-0.6,0.2-0.9,0.5c-0.3,0.2-0.5,0.5-0.6,0.8c-0.1,0.3-0.2,0.7-0.2,1.1
			c0,0.6,0.2,1.2,0.7,1.8c0.5,0.6,1,1.2,1.7,1.9c0.7,0.7,1.4,1.3,2.2,2c0.8,0.7,1.5,1.4,2.2,2.2c0.7,0.8,1.2,1.6,1.7,2.5
			c0.5,0.9,0.7,1.8,0.7,2.8c0,1.1-0.2,2.1-0.6,3c-0.4,0.9-0.9,1.6-1.7,2.3c-0.7,0.6-1.6,1.1-2.6,1.4c-1,0.3-2.2,0.5-3.4,0.5
			c-1.1,0-2.1-0.2-3-0.5c-0.9-0.3-1.7-0.7-2.4-1.1c-0.7-0.5-1.3-0.9-1.8-1.4c-0.5-0.5-0.9-1-1.1-1.4l0.8-0.6
			c0.2,0.2,0.5,0.5,0.8,0.8c0.3,0.3,0.7,0.5,1.1,0.8c0.4,0.2,0.8,0.4,1.2,0.6c0.4,0.2,0.9,0.2,1.4,0.2c1.1,0,2.1-0.3,2.8-0.8
			c0.7-0.5,1.1-1.4,1.1-2.4c0-0.6-0.2-1.2-0.6-1.9c-0.4-0.6-0.9-1.3-1.5-2c-0.6-0.7-1.2-1.4-1.9-2.1c-0.7-0.7-1.3-1.5-1.9-2.3
			c-0.6-0.8-1.1-1.6-1.5-2.4c-0.4-0.8-0.6-1.7-0.6-2.6c0-1,0.2-1.9,0.6-2.6c0.4-0.7,0.9-1.4,1.6-1.8c0.7-0.5,1.4-0.9,2.3-1.1
			c0.9-0.2,1.7-0.4,2.7-0.4c1.1,0,2,0.1,2.9,0.3c0.9,0.2,1.6,0.5,2.2,0.9c0.6,0.4,1.1,0.9,1.4,1.5c0.3,0.6,0.5,1.3,0.5,2
			c0,0.6-0.2,1.1-0.6,1.6c-0.4,0.4-0.9,0.7-1.7,0.7c-0.7,0-1.2-0.1-1.6-0.4c-0.4-0.3-0.5-0.7-0.5-1.2c0-0.3,0.1-0.6,0.2-0.8
			c0.2-0.2,0.4-0.3,0.6-0.5c0.2-0.1,0.4-0.2,0.6-0.3c0.2-0.1,0.2-0.2,0.2-0.3c0-0.4-0.2-0.8-0.7-1.1C26.5,22.9,25.9,22.8,25.2,22.8"
			/>
		<path class="st0" d="M43.1,22.8c-0.4,0-0.7,0-1,0.1c-0.3,0.1-0.6,0.2-0.9,0.5c-0.3,0.2-0.4,0.5-0.6,0.8c-0.1,0.3-0.2,0.7-0.2,1.1
			c0,0.6,0.2,1.2,0.7,1.8c0.5,0.6,1,1.2,1.7,1.9c0.7,0.7,1.4,1.3,2.2,2c0.8,0.7,1.5,1.4,2.2,2.2c0.7,0.8,1.2,1.6,1.7,2.5
			c0.5,0.9,0.7,1.8,0.7,2.8c0,1.1-0.2,2.1-0.6,3c-0.4,0.9-0.9,1.6-1.7,2.3c-0.7,0.6-1.6,1.1-2.6,1.4c-1,0.3-2.2,0.5-3.4,0.5
			c-1.1,0-2.1-0.2-3-0.5c-0.9-0.3-1.7-0.7-2.4-1.1c-0.7-0.5-1.3-0.9-1.8-1.4c-0.5-0.5-0.9-1-1.1-1.4l0.8-0.6
			c0.2,0.2,0.5,0.5,0.8,0.8c0.3,0.3,0.7,0.5,1.1,0.8c0.4,0.2,0.8,0.4,1.2,0.6c0.4,0.2,0.9,0.2,1.4,0.2c1.1,0,2.1-0.3,2.8-0.8
			c0.7-0.5,1.1-1.4,1.1-2.4c0-0.6-0.2-1.2-0.6-1.9c-0.4-0.6-0.9-1.3-1.5-2c-0.6-0.7-1.2-1.4-1.9-2.1c-0.7-0.7-1.3-1.5-1.9-2.3
			c-0.6-0.8-1.1-1.6-1.5-2.4c-0.4-0.8-0.6-1.7-0.6-2.6c0-1,0.2-1.9,0.6-2.6c0.4-0.7,0.9-1.4,1.6-1.8c0.7-0.5,1.4-0.9,2.3-1.1
			c0.9-0.2,1.7-0.4,2.7-0.4c1.1,0,2,0.1,2.9,0.3c0.9,0.2,1.6,0.5,2.2,0.9c0.6,0.4,1.1,0.9,1.4,1.5c0.3,0.6,0.5,1.3,0.5,2
			c0,0.6-0.2,1.1-0.6,1.6c-0.4,0.4-0.9,0.7-1.7,0.7c-0.7,0-1.2-0.1-1.6-0.4C44.2,27,44,26.6,44,26.1c0-0.3,0.1-0.6,0.2-0.8
			c0.2-0.2,0.4-0.3,0.6-0.5c0.2-0.1,0.4-0.2,0.6-0.3c0.2-0.1,0.2-0.2,0.2-0.3c0-0.4-0.2-0.8-0.7-1.1C44.4,22.9,43.8,22.8,43.1,22.8"
			/>
	</g>
</g>
</svg>
